<?xml version="1.0" encoding="UTF-8" standalone="no"?>
<svg
   xmlns:dc="http://purl.org/dc/elements/1.1/"
   xmlns:cc="http://creativecommons.org/ns#"
   xmlns:rdf="http://www.w3.org/1999/02/22-rdf-syntax-ns#"
   xmlns:svg="http://www.w3.org/2000/svg"
   xmlns="http://www.w3.org/2000/svg"
   xmlns:xlink="http://www.w3.org/1999/xlink"
   xmlns:sodipodi="http://sodipodi.sourceforge.net/DTD/sodipodi-0.dtd"
   xmlns:inkscape="http://www.inkscape.org/namespaces/inkscape"
   version="1.1"
   id="Layer_1"
   x="0px"
   y="0px"
   width="297.02789"
   height="108.37461"
   viewBox="0 0 297.02789 108.3746"
   enable-background="new 0 0 310.5 302.147"
   xml:space="preserve"
   sodipodi:docname="lok.svg"
   inkscape:version="1.0.2 (e86c870879, 2021-01-15)"><metadata
   id="metadata220"><rdf:RDF><cc:Work
       rdf:about=""><dc:format>image/svg+xml</dc:format><dc:type
         rdf:resource="http://purl.org/dc/dcmitype/StillImage" /><dc:title></dc:title></cc:Work></rdf:RDF></metadata><defs
   id="defs218"><linearGradient
     inkscape:collect="always"
     id="linearGradient1049"><stop
       style="stop-color:#e2002a;stop-opacity:1;"
       offset="0"
       id="stop1045" /><stop
       style="stop-color:#e2002a;stop-opacity:0;"
       offset="1"
       id="stop1047" /></linearGradient><linearGradient
     inkscape:collect="always"
     xlink:href="#linearGradient1049"
     id="linearGradient1051"
     x1="8.2161093"
     y1="61.700047"
     x2="305.24399"
     y2="61.700047"
     gradientUnits="userSpaceOnUse" /></defs><sodipodi:namedview
   pagecolor="#ffffff"
   bordercolor="#666666"
   borderopacity="1"
   objecttolerance="10"
   gridtolerance="10"
   guidetolerance="10"
   inkscape:pageopacity="0"
   inkscape:pageshadow="2"
   inkscape:window-width="1920"
   inkscape:window-height="1050"
   id="namedview216"
   showgrid="false"
   fit-margin-top="0"
   fit-margin-left="0"
   fit-margin-right="0"
   fit-margin-bottom="0"
   inkscape:zoom="2.8723128"
   inkscape:cx="140.91804"
   inkscape:cy="92.542749"
   inkscape:window-x="1920"
   inkscape:window-y="0"
   inkscape:window-maximized="1"
   inkscape:current-layer="Layer_1" />




<path
   fill="#ffffff"
   d="M 150.09889,83.914"
   id="path158" />
<path
   fill="#ffffff"
   d="m 274.44689,72.911 c -31.568,13.917 -76.479,22.613997 -126.31,22.613997 -47.809,0 -91.087999,-8.005 -122.398999,-20.942997 -3.017,-1.247 252.435999,-3.314 248.708999,-1.671 z"
   id="path160" />

<g
   id="g180"
   transform="translate(-6.1131095,-0.1389997)">
	
	
	
	
	
	
	
	
</g>
<g
   id="g188"
   transform="translate(-6.1131095,-0.1389997)">
	
	
	
</g>
<rect
   x="76.636887"
   y="40.561001"
   fill="#ffffff"
   width="151"
   height="33"
   id="rect190" />
<rect
   x="62.63689"
   y="30.561001"
   fill="#ffffff"
   width="176"
   height="12"
   id="rect192" />


<rect
   x="69.636887"
   y="29.561001"
   fill="#ffffff"
   width="40"
   height="5"
   id="rect198" />

<g
   id="g213"
   transform="translate(-8.2161095,-4.492)">
	<g
   id="Lok_8_"
   style="fill:#e2002a;fill-opacity:1;stroke:#000000;stroke-opacity:1">
		<path
   fill="#00471b"
   d="m 64.23,104.229 30.914,0.254 c 0.145,0 0.219,0.027 0.333,0.115 l 11.438,-0.137 -40.609,-3.872 c -0.338,1.424 -1.061,2.706 -2.076,3.64 z"
   id="path202"
   style="fill:#e2002a;fill-opacity:1;stroke:#000000;stroke-opacity:1" />
		<path
   fill="#00471b"
   d="m 65.849,98.665 c 0,-3.908 -3.197,-7.1 -7.118,-7.1 -3.979,0 -7.17,3.191 -7.17,7.1 0,2.219 1.094,4.218 2.72,5.518 l 8.791,0.047 c 1.19,-0.901 2.068,-2.207 2.49,-3.692 l -5.349,-0.527 c -0.321,0.41 -0.836,0.679 -1.405,0.679 -0.964,0 -1.798,-0.81 -1.798,-1.738 0,-0.975 0.834,-1.735 1.798,-1.735 0.861,0 1.559,0.581 1.786,1.333 l 5.232,0.469 c -10e-4,-0.136 0.023,-0.211 0.023,-0.354 z"
   id="path204"
   style="fill:#e2002a;fill-opacity:1;stroke:#000000;stroke-opacity:1" />
		<path
   fill="#00471b"
   d="m 262.573,97.563 c 1.059,0 1.796,0.807 1.796,1.737 0,0.977 -0.737,1.735 -1.796,1.735 -0.575,0 -1.093,-0.227 -1.415,-0.63 l -5.541,0.549 c 0.374,1.48 1.351,2.768 2.537,3.673 l 8.729,-0.043 c 1.673,-1.306 2.684,-3.297 2.684,-5.574 0,-3.908 -3.191,-7.09 -7.068,-7.09 -3.978,0 -7.175,3.182 -7.175,7.09 0,0.147 0.025,0.278 0.029,0.423 l 5.479,-0.497 c 0.229,-0.796 0.877,-1.373 1.741,-1.373 z"
   id="path206"
   style="fill:#e2002a;fill-opacity:1;stroke:#000000;stroke-opacity:1" />
		<path
   fill="#00471b"
   d="m 254.818,100.997 -40.281,3.807 11.362,0.139 c 0.295,-0.582 0.892,-0.938 1.669,-0.938 0.629,0 1.2,0.332 1.505,0.861 l 27.918,-0.232 c -1.063,-0.993 -1.735,-2.214 -2.173,-3.637 z"
   id="path208"
   style="fill:#e2002a;fill-opacity:1;stroke:#000000;stroke-opacity:1" />
		<path
   fill="#00471b"
   d="m 304.514,106.613 -11.879,-0.074 -0.068,-2.321 3.782,-0.049 c 0,0 2.938,-0.16 3.506,-0.874 0.51,-0.66 1.96,-0.695 1.96,-0.695 l 0.041,1.335 0.258,0.273 1.226,0.082 0.029,-4.847 -0.029,-0.17 -0.281,-0.045 -1.177,0.025 -0.053,0.471 0.016,1.099 c 0,0 -1.427,0.055 -2.003,-0.524 -0.827,-0.777 -3.778,-0.891 -3.778,-0.891 l -1.377,-0.023 -2.373,-0.105 c -0.008,-0.427 -0.023,-0.839 -0.031,-1.196 -0.168,-2.605 -0.213,-4.606 -0.213,-4.606 l 2.764,-4.64 0.041,-6.377 c 0,0 1.851,0.023 2.026,0 0.41,0 0.863,-1.44 0.863,-3.256 0,-1.768 -0.453,-3.205 -0.863,-3.205 -1.485,0 -4.519,-0.271 -4.519,-1.489 0,-0.372 -0.699,-0.515 -0.699,-0.076 0,0.945 -0.214,1.543 -1.13,1.543 l -2.602,-0.074 -0.027,6.462 0.737,0.025 -0.027,5.892 h -2.391 c 0.096,-1.876 1.433,-18.233 0.853,-24.171 0.014,0.012 0.018,0.016 0.025,0.027 1.663,0 1.405,-2.16 1.357,-3.193 -0.111,-0.524 -0.221,-1.257 -1.279,-1.257 -1.302,0 -4.198,-0.195 -5.33,1.021 -13.87,-2.447 -52.818,-5.246 -52.818,-5.246 0.215,-7.495 0.309,-12.957 0.334,-15.928 h 12.297 v -4.54 h -9.248 L 243.835,24.263 226.323,4.992 h -9.936 l -18.493,18.514 12.704,11.488 H 106.589 L 119.288,23.506 100.791,4.992 h -9.84 L 73.348,24.261 84.793,34.994 h -12.89 v 4.54 H 86.93 v 15.957 c 0,0 -40.209,1.968 -53.286,3.786 -1.202,-1.216 -4.546,-0.931 -6.08,-0.931 -1.073,0 -1.346,0.739 -1.364,1.216 -0.1,1.089 0.152,3.24 1.919,3.24 -1.767,6.127 -1.706,20.13 -1.606,24.369 l -1.757,0.004 0.008,-5.133 0.778,-0.08 -0.027,-6.41 -2.596,0.018 c -0.975,0 -1.139,-0.584 -1.139,-1.481 0,-0.448 -0.745,-0.295 -0.745,0.023 0,1.267 -2.996,1.493 -4.474,1.493 -0.455,0 -0.862,1.438 -0.862,3.256 0,1.76 0.407,3.205 0.862,3.205 0.115,0.012 2.027,0 2.027,0 l 0.094,6.376 2.666,4.638 c 0,0 -0.045,2.005 -0.16,4.606 -0.016,0.412 -0.023,0.84 -0.039,1.26 l -2.417,0.07 -1.329,0.108 -3.43,0.592 -0.413,0.162 c -0.465,0.512 -1.872,0.074 -1.872,0.074 l -0.049,-0.856 -0.107,-0.377 -1.173,0.02 -0.283,0.123 -0.027,0.249 0.027,4.894 1.276,0.02 0.258,0.18 0.049,-1.604 h 1.858 l 0.043,0.283 0.125,0.291 3.432,0.603 3.776,0.098 -0.127,2.317 -11.887,0.027 -0.129,0.13 0.041,0.256 v 3.061 l 0.004,0.16 c 1.792,0.029 2.515,0.029 3.733,0.029 l 0.301,-0.076 0.016,-0.293 0.195,-0.281 0.309,-0.074 7.274,0.074 c 0,0.055 -0.006,0.154 -0.006,0.203 -0.133,1.171 -0.193,2.191 -0.264,2.191 21.213,0.075 253.776,0.118 272.325,0.27 0,0.248 0.759,0.387 0.759,0.387 -0.023,-0.273 -0.3,-1.265 -0.466,-2.453 -0.004,-0.092 -0.068,-0.139 -0.076,-0.252 l 7.247,-0.033 0.293,0.033 0.195,0.289 0.021,0.278 0.315,0.131 c 1.221,0 1.991,0 3.729,-0.018 l 0.049,-0.16 v -3.121 -0.208 z M 262.54,62.022 h 20.237 c 0.217,0 0.275,0.413 0.275,0.796 0,0.322 -0.059,0.736 -0.275,0.736 H 262.54 c -0.22,0 -0.347,-0.414 -0.347,-0.736 0,-0.382 0.127,-0.796 0.347,-0.796 z m -29.814,0 h 25.839 c 0.254,0 0.42,0.413 0.42,0.796 0,0.322 -0.166,0.736 -0.42,0.736 h -25.839 c -0.248,0 -0.51,-0.414 -0.51,-0.736 0,-0.382 0.262,-0.796 0.51,-0.796 z M 202.334,23.385 217.701,7.951 h 7.26 l 14.715,16.146 -11.602,10.897 h -13.178 z m 24.321,23.426 v 10.363 c 0,1.788 -0.26,2.258 -1.07,2.258 l -3.874,0.051 c -0.826,0 -1.083,-0.521 -1.083,-2.746 V 46.534 c 0,-2.446 0.032,-2.949 1.075,-2.949 l 3.8,0.01 c 0.908,0 1.152,0.6 1.152,3.216 z m -7.512,-6.063 v 47.146 c 0,0.423 -0.32,0.661 -0.789,0.661 -0.367,0 -0.693,-0.238 -0.693,-0.661 V 40.748 c 0,-0.429 0.326,-0.483 0.693,-0.483 0.468,0 0.789,0.054 0.789,0.483 z m -11.871,4.006 6.441,0.012 c 1.688,0 1.659,0.603 1.673,3.291 l -0.014,10.442 c 0,1.845 -0.166,2.314 -1.599,2.314 h -6.699 c -1.452,0 -1.472,-0.47 -1.472,-2.762 V 47.777 c 0.002,-2.514 -0.202,-3.023 1.67,-3.023 z m -4.637,13.436 c 0,-0.271 0.326,-0.553 0.697,-0.553 0.463,0 0.786,0.281 0.786,0.553 v 29.704 c 0,0.279 -0.323,0.413 -0.786,0.413 -0.371,0 -0.697,-0.134 -0.697,-0.413 z m -52.823,-8.535 c 0.01,-1.728 0.277,-2.581 2.603,-2.565 l 9.87,0.035 c 2.237,0.094 2.786,0.506 2.786,2.727 v 8.817 c 0,1.87 -0.793,1.87 -2.56,1.87 h -10.368 c -1.782,0 -2.447,-0.164 -2.439,-2.599 z m -42.05,-4.884 c 1.697,0 1.703,0.597 1.703,3.285 v 10.442 c 0,1.845 -0.122,2.314 -1.563,2.314 h -7.089 c -1.456,0 -1.87,-0.47 -1.87,-2.762 V 47.785 c 0,-2.522 0.252,-3.021 2.025,-3.021 z M 77.551,24.097 92.266,7.951 h 7.263 l 15.41,15.434 -12.799,11.533 -13.196,0.189 z M 97.46,41.146 v 47.139 c 0,0.435 -0.369,0.616 -0.792,0.616 -0.365,0 -0.737,-0.182 -0.737,-0.616 V 41.146 c 0,-0.434 0.372,-0.533 0.737,-0.533 0.423,0 0.792,0.1 0.792,0.533 z m -5.13,18.131 -3.373,0.054 c -0.829,0 -0.538,-0.529 -0.538,-2.827 V 46.2 c 0,-2.472 -0.223,-3.027 0.719,-3.027 l 3.266,0.006 c 0.901,0 0.508,0.604 0.508,3.293 v 10.479 c 10e-4,1.851 0.231,2.326 -0.582,2.326 z m -6.877,1.098 c 0,-0.248 0.32,-0.461 0.738,-0.461 0.422,0 0.739,0.213 0.739,0.461 v 25.888 c 0,0.244 -0.316,0.32 -0.739,0.32 -0.418,0 -0.738,-0.076 -0.738,-0.32 z m -28.27,1.647 h 25.883 c 0.256,0 0.368,0.413 0.368,0.796 0,0.322 -0.111,0.736 -0.368,0.736 H 57.183 c -0.201,0 -0.461,-0.414 -0.461,-0.736 0,-0.382 0.26,-0.796 0.461,-0.796 z m -25.553,0 h 20.239 c 0.213,0 0.277,0.413 0.277,0.796 0,0.322 -0.064,0.736 -0.277,0.736 H 31.63 c -0.178,0 -0.342,-0.414 -0.342,-0.736 0,-0.382 0.164,-0.796 0.342,-0.796 z M 20.423,111.66 c 0.352,-0.267 7.008,-4.56 14.056,-4.56 h 2.195 c 0.872,2.313 2.703,3.91 4.892,4.575 z m 25.315,0.016 c 2.191,-0.601 3.958,-2.156 4.878,-4.206 l 38.058,0.047 c 1.323,1.188 3.082,1.737 5.058,1.737 1.925,0 3.741,-0.615 5.062,-2.153 h 15.891 c 0.293,2.271 1.499,3.762 3.157,4.606 z m 76,-5.342 c -0.534,0 -0.979,-0.238 -1.298,-0.553 l -24.961,0.299 c -0.293,0.578 -0.894,0.997 -1.615,0.997 -0.755,0 -1.434,-0.448 -1.708,-1.126 l -30.103,-0.184 c -1.014,0.451 -2.146,0.742 -3.322,0.742 -1.259,0 -2.416,-0.307 -3.44,-0.828 L 45.177,105.63 c -0.314,0.418 -0.84,0.703 -1.423,0.703 -1.012,0 -1.798,-0.809 -1.798,-1.735 0,-0.985 0.786,-1.741 1.798,-1.741 0.844,0 1.536,0.554 1.726,1.29 l 7.63,0.035 c -1.421,-1.425 -2.3,-3.359 -2.3,-5.518 0,-4.335 3.572,-7.888 7.921,-7.888 4.342,0 7.86,3.553 7.86,7.888 0,0.154 -0.029,0.299 -0.029,0.452 l 53.44,5.065 c 0.18,-0.749 0.879,-1.325 1.736,-1.325 1.014,0 1.802,0.756 1.802,1.741 0,0.928 -0.788,1.737 -1.802,1.737 z m 3.167,5.383 c 1.636,-0.771 2.981,-2.184 3.645,-4.231 l 14.144,0.043 V 95.79 l 9.184,-0.02 c -2.482,2.49 -1.177,7.22 0.727,8.535 2.429,1.62 6.121,1.933 9.015,-0.012 1.843,-1.304 3.471,-5.877 0.856,-8.504 l 7.915,0.025 -0.008,11.855 22.17,0.016 c 0.649,1.821 2.039,3.275 3.771,4.122 z m 126.96,0.123 -49.084,-0.031 c 1.731,-0.833 3.123,-2.289 3.775,-4.112 l 15.563,0.055 c 1.386,1.331 3.219,2.17 5.365,2.17 2.046,0 3.867,-0.835 5.257,-2.16 l 37.825,0.025 c 0.641,1.722 1.888,3.088 3.563,3.931 -10.708,0.085 -22.264,0.122 -22.264,0.122 z m 25.766,-5.164 c -0.58,0 -1.117,-0.279 -1.432,-0.648 l -10.272,0.047 c -1.075,0.525 -2.227,0.829 -3.428,0.829 -1.183,0 -2.313,-0.29 -3.38,-0.796 l -29.851,0.242 c -0.273,0.616 -0.901,1.124 -1.7,1.124 -0.777,0 -1.374,-0.422 -1.669,-0.993 l -24.916,-0.303 c -0.31,0.316 -0.815,0.498 -1.251,0.498 -1.06,0 -1.896,-0.758 -1.896,-1.737 0,-0.924 0.836,-1.733 1.896,-1.733 0.859,0 1.513,0.577 1.741,1.315 l 53.188,-4.993 c -0.006,-0.158 -0.128,-0.357 -0.128,-0.517 0,-4.332 3.608,-7.835 7.965,-7.835 4.346,0 7.858,3.503 7.858,7.835 0,2.166 -0.876,4.138 -2.299,5.568 l 7.835,-0.084 c 0.244,-0.734 0.882,-1.29 1.737,-1.29 1.058,0 1.891,0.81 1.891,1.733 0.001,0.98 -0.832,1.738 -1.889,1.738 z m 3.382,5.015 c 1.1,-0.562 2.007,-1.394 2.663,-2.332 3.109,0.784 5.847,1.716 7.581,2.301 -1.517,0.006 -5.388,0.016 -10.244,0.031 z"
   id="path210"
   style="fill:#e2002a;fill-opacity:1;stroke:#000000;stroke-opacity:1"
   sodipodi:nodetypes="ccccccccccccccccccccccccsssscccccccccsccccccccccccccccccccccsccccccccsssscccccccccccccccccccccccccccccccccccccccccccccccccccccsssssssssssssscccccccssccssccssssssssccccsssccssssssscccsssscccsssssscccccccccsssssssccssccsccssssssssssssssssssssscsccccccsccccsccsccsccsssccsssccssscccccccccccccccccsccccsccsccsccsssccsssccscscccc" />
	</g>
</g>
</svg>
